<?xml version="1.0" encoding="UTF-8"?><svg id="Layer_1" xmlns="http://www.w3.org/2000/svg" viewBox="0 0 274.7 337.5"><path d="M149.9,246.6c-3.6,0-6.5,2.6-6.5,7.3s2.8,7.4,6.5,7.4,6.5-2.7,6.5-7.4-2.8-7.3-6.5-7.3Zm0,0c-3.6,0-6.5,2.6-6.5,7.3s2.8,7.4,6.5,7.4,6.5-2.7,6.5-7.4-2.8-7.3-6.5-7.3ZM255.4,55.1c-31.5-38-118.1-39-118.1-39,0,0-86.6,1-118.1,39-12.9,175.3,12.9,224.3,118.1,265.1,105.2-40.8,131-89.8,118.1-265.1ZM114.3,260.8c3.7,0,7.2-1.7,9.4-4.7l7.2,6.5c-3.9,4.9-9.8,7.5-17.1,7.5-12.6,0-21.9-8.6-21.9-20.7s9.3-20.7,21.9-20.7,13.3,2.7,17.1,7.5l-7.2,6.5c-2.2-2.9-5.7-4.7-9.4-4.7-6.5,0-11.1,4.5-11.1,11.3s4.6,11.5,11.1,11.5Zm35.6,9c-10.1,0-17.4-6.6-17.4-16s7.3-15.9,17.4-15.9,17.4,6.6,17.4,15.9-7.2,16-17.4,16h0Zm26.8,0c-3.5,0-6.4-2.6-6.5-6.1,0-.1,0-.2,0-.4,0-3.6,2.9-6.5,6.5-6.5s6.5,2.9,6.5,6.5c.1,3.5-2.6,6.4-6,6.5-.1,0-.3,0-.4,0h0Zm-1.3-67.2l-10-26.1h-56.9l-10,26.1H47.1L112.5,53h49.6l65.4,149.7h-52.2Zm-25.5,44c-3.6,0-6.5,2.6-6.5,7.3s2.8,7.4,6.5,7.4,6.5-2.7,6.5-7.4-2.8-7.3-6.5-7.3Zm-27.5-106.4h29.1l-14.6-37.6-14.6,37.6Zm27.5,106.4c-3.6,0-6.5,2.6-6.5,7.3s2.8,7.4,6.5,7.4,6.5-2.7,6.5-7.4-2.8-7.3-6.5-7.3Zm0,0c-3.6,0-6.5,2.6-6.5,7.3s2.8,7.4,6.5,7.4,6.5-2.7,6.5-7.4-2.8-7.3-6.5-7.3Z" fill="#fff"/><path d="M271.6,53.9l-.4-5.2-3.2-4c-15.6-18.7-42.6-31.9-80.3-39.3C171.1,2.3,154.4,.5,137.5,0h-.4c-16.8,.5-33.6,2.3-50.2,5.5C49.3,12.9,22.3,26.1,6.8,44.8l-3.3,4-.4,5.2C-3.9,149.1,.8,204.4,19.3,244.8c18.5,40.4,51.1,66.7,112.2,90.4l5.8,2.3,5.8-2.3c61.1-23.7,93.6-49.9,112.2-90.4,18.6-40.5,23.2-95.7,16.2-190.9Zm-23.5,187.6c-17.6,38.4-48.8,63.4-107.8,86.2l-2.9,1.1-2.9-1.1c-58.9-22.8-90.1-47.9-107.8-86.2C8.7,202.4,4.3,148.3,11.2,54.5l.2-2.6,1.6-2C46.6,9.6,133.6,8.1,137.2,8.1h.3c3.7,0,90.7,1.5,124.2,41.9l1.6,2,.2,2.6c6.9,93.7,2.4,147.9-15.5,187Z" fill="#fff"/></svg>